<?xml version="1.0" encoding="UTF-8"?>
<svg width="214" height="213.9" version="1.1" viewBox="0 0 214 213.9" xml:space="preserve" xmlns="http://www.w3.org/2000/svg">
<style type="text/css">
	.st0{fill:#FFFFFF;}
	.st1{fill:#005288;}
	.st2{fill:#C41230;}
	.st3{fill:#0078AE;}
	.st4{fill:#5E9732;}
</style>
	<path class="st0" d="m107 213.9c59.1 0 107-47.9 107-107s-47.9-106.9-107-106.9-107 47.9-107 107 47.9 106.9 107 106.9z"/>
	<path class="st1" d="m107 2.6c-57.5 0-104.4 46.8-104.4 104.4s46.9 104.3 104.5 104.3c57.5 0 104.5-46.8 104.5-104.4-0.1-57.5-46.9-104.3-104.6-104.3zm0 202.6c-54.2 0-98.2-44-98.2-98.2 0-54.1 44.1-98.1 98.2-98.1 54.2 0 98.2 44 98.2 98.2 0.1 54.1-44 98.1-98.2 98.1z"/>
	<path class="st1" d="m113 145.8c3.3-0.6 6.9-1 10.3-1.1v0.8c-8.5 0.4-14.9 2.8-19.1 5-0.6-0.6-1.1-1.2-1.7-1.9 3-1 6.5-2.1 10.5-2.8zm-8.3 5.2c1.5 1.5 2.9 2.9 4.5 4.3v-2.8c0-1.5 1-2.7 2.3-2.7s2.3 1.2 2.3 2.7v6.4c0.7 0.5 1.5 1 2.2 1.6v-10c0-1.5 1-2.7 2.3-2.7s2.3 1.2 2.3 2.7v12.9c0.8 0.5 1.8 0.9 2.6 1.4v-18.5c-8.2 0.2-14.3 2.5-18.5 4.7zm5.9-15.9 1.6 0.7 0.8-0.5-2.1-1.2zm0.9-3.2 1.7-1.4-1-0.8zm0.8-3.1 1.6 1.2 1.6-1.2-1.6-5.9zm3.4 7v-1l-0.8 0.5zm-2.5 0.6 2.5 1.2v-0.6l-1.8-1zm2.6-6.7-1 0.8 1.7 1.2zm-1.9 5.1 2.7-1.6-2.7-2.1-2.7 2.1zm2.6-0.4 0.2 0.1 0.3 0.2-0.1-0.5zm-1.8-80.5-2.3 1.2-1.2 1.8c-0.7-0.3-2.6-1.1-4.4-1.8-1.8-0.6-4.2-1.5-4.2-1.5 4.6 0 5.6 0.1 5.8 0.1 0.2 0.1 1.3 0.1 6.3 0.2zm63.5 53.1c0 39.3-31.9 71.1-71.1 71.1-8.2 0-16.1-1.4-23.5-3.9 0 0 13.7-10.9 19.5-16.8-4.1-3.8-7.7-8.1-10.9-12.8-2.5-3.6-4.7-7.6-6.4-11.5l-34.1 34.1 1.1-13.8c-10.6-12.5-17-28.6-17-46.1 0-39.3 31.9-71.1 71.1-71.1 39.5-0.3 71.3 31.5 71.3 70.8zm-106.8-57.8 15.9 8.5-9.1 9.3 6.8-0.3-5.6 9.2h0.4c4.2 0 8.1 1.4 11.2 3.6 7.3-1.1 17.8-2.5 27.5-3.1 0 0-0.1-0.1-0.1-0.2-0.1-0.3-0.3-0.6-0.4-0.8-0.2-0.4-0.4-0.9-0.7-1.4-0.3-0.6-0.6-1.1-0.8-1.8-0.3-0.7-0.7-1.4-1-2.1-0.4-0.8-0.8-1.6-1.1-2.4 0 0 1.7-2.4 5-3.3 3-0.9 6.4 0 8.4 2.6 0.6 0.8 1.1 1.8 1.1 2.8 0 0 5.2-7.9 3.9-12.4-1.2-4.5-11.2-4.1-11.2-4.1h-3.5l-3-3.2c-0.8-0.8-1.9-1.4-3-1.4zm-13.1 66.6 8-8.5v-8.5l-7.3 7.7zm24.6-11.4c3.8-1.4 6.4-5.1 6.4-9.1v-0.4c-1.2-0.2-2.4-1-2.8-2.3h-6.2c-0.2 0.6-0.6 1-1 1.5-0.6 0.5-1.4 0.8-2.2 0.8-1.5 0-2.8-0.9-3.2-2.3h-1.7l-3.4 3.6v11.9l-10.8 11.4-0.8 10.7 10.8-11.4c-0.2-0.4-0.4-1-0.4-1.6 0-1.9 1.6-3.4 3.4-3.4s3.4 1.6 3.4 3.4c0 1.9-1.6 3.4-3.4 3.4-0.5 0-0.9-0.1-1.4-0.3l-12.8 13.5-0.9 10.7 11.9-12.6c-0.2-0.4-0.4-1-0.4-1.6 0-1.9 1.6-3.4 3.4-3.4s3.4 1.6 3.4 3.4-1.6 3.4-3.4 3.4c-0.5 0-0.9-0.1-1.4-0.3l-14 15-1 12.4 27.6-27.6v-28.6zm-11.9 27.2c0.6 0 1-0.5 1-1 0-0.6-0.5-1-1-1-0.6 0-1 0.5-1 1-0.1 0.5 0.4 1 1 1zm0-13.2c0.6 0 1-0.5 1-1s-0.5-1-1-1c-0.6 0-1 0.5-1 1s0.4 1 1 1zm6.1-25.9c0.6 0 1-0.5 1-1 0-0.6-0.5-1-1-1-0.6 0-1 0.5-1 1 0 0.6 0.4 1 1 1zm12.7 0c0.6 0 1-0.5 1-1 0-0.6-0.5-1-1-1-0.6 0-1 0.5-1 1 0 0.6 0.5 1 1 1zm0.7 32.4v-16.7c3.6-3.1 6-7.8 6-13s-2.4-10-6.1-13.1c-0.8-0.7-1.9-1.4-2.8-1.9-2.4-1.2-5.1-2-7.9-2-6 0-11.3 3.1-14.3 7.9-0.2 0.4-5.3 9-5.3 9l-0.6 7.5 11.7-12.4h2.7c0.5-1.4 1.8-2.3 3.2-2.3 0.8 0 1.6 0.3 2.2 0.8 0.4 0.4 0.8 0.9 1 1.5h6.2c0.5-1.4 1.8-2.3 3.2-2.3 1.9 0 3.4 1.6 3.4 3.4 0 1.2-0.6 2.3-1.6 2.9v0.8c0 4.8-2.9 9.1-7.2 11v25zm80.8-22.7v-18.6s-19.4-5-43.4-5h-1.6c-10.8 0.1-24 1.8-33.2 3.1 3.4 3.4 5.6 8.2 5.6 13.5s-2.2 10.3-6 13.9v0.6h74.9c-1.1 10-4.3 19.4-9.2 27.8v-2h-6.1v-3.1h-3.4v-3.6h-2.1v-2.2c0-0.3-0.1-0.6-0.2-0.8-0.3-0.5-0.8-0.7-1.4-0.7-0.5 0-1 0.3-1.4 0.7-0.2 0.3-0.3 0.6-0.3 0.9v2.2h-2.1v3.6h-2.5v-11.7h-15.8v16.9l-4.8-2.3c-1.2-4.4-2.6-8.7-3.8-13.1 0.3-0.2 0.6-0.6 0.6-1.1 0-0.7-0.6-1.4-1.4-1.4-0.7 0-1.4 0.6-1.4 1.4 0 0.5 0.2 0.8 0.6 1.1-1.1 4.1-2.4 8.1-3.6 12.3h-0.1l-1-0.5v4.1h-1.9l-0.8-14v-0.7h-5.6v0.7l-0.8 14h-4.4c-1.8-3-3.4-6.1-4.7-9.5l-2.5 2.5c7.5 17.3 21.5 31.3 38.8 38.6 26.6-11.2 45.1-37.3 45-67.6z"/>
	<path class="st1" d="m21.8 111.6v-2.7c1.5 0 2.6 0.3 3.6 1 0.9 0.7 1.6 1.8 1.7 3.1 0.1 1.7-0.4 2.9-1.6 3.8-1.1 0.9-2.8 1.6-4.9 1.7-2.2 0.2-3.8-0.1-5.1-0.8-1.2-0.7-2-2-2.1-3.6-0.2-2.8 1.4-4.4 4.8-4.9l0.4 2.6c-2 0.2-2.9 0.9-2.8 2.1 0 0.6 0.4 1 1 1.4 0.6 0.3 1.9 0.4 3.7 0.2 1.7-0.1 2.7-0.4 3.3-0.7 0.6-0.4 0.8-0.9 0.8-1.6-0.1-0.9-1.1-1.6-2.8-1.6z"/>
	<path class="st1" d="m13.2 108.5 0.1-3.2 4.9-1.7-4.8-2.2 0.1-2.8 7.6 3.9 5.6 0.2-0.1 2.9-5.6-0.2z"/>
	<path class="st1" d="m13.7 96.8 0.7-4.5c0.2-1 0.4-1.9 0.6-2.4s0.7-0.9 1.4-1.1c0.6-0.3 1.4-0.3 2.2-0.2 1.5 0.2 2.3 1 2.5 2.3 0.7-1.5 2-2 3.5-1.8 0.8 0.1 1.6 0.4 2.1 0.9s0.8 1 0.9 1.7c0.1 0.6 0.1 1.5-0.1 2.6l-0.7 4.5zm5.7-2 0.1-0.9c0.1-0.9 0.1-1.6-0.2-1.9s-0.6-0.5-1-0.5c-0.4-0.1-0.7 0-1.1 0.2-0.3 0.2-0.6 0.7-0.7 1.5l-0.2 1.1zm5.6 0.8 0.2-1.5c0.2-1.4-0.3-2.1-1.5-2.3-0.6-0.1-1.1 0-1.5 0.3-0.3 0.3-0.5 0.7-0.6 1.5l-0.2 1.5z"/>
	<path class="st1" d="m15.9 84.5 2.2-7.8 2.2 0.6-1.5 5 3.1 0.8 1.1-3.8 2.2 0.6-1.1 3.8 3.1 0.9 1.5-5 2.3 0.6-2.2 7.8z"/>
	<path class="st1" d="m19 74.3 1.7-3.8c0.3-0.7 0.6-1.4 0.8-1.7 0.2-0.4 0.6-0.7 1-0.9 0.5-0.3 1-0.4 1.7-0.4s1.2 0.1 1.9 0.4c1.6 0.6 2.4 1.7 2.5 3.1h6.3l-1.2 2.9-5.5-0.5-0.5 1.4 4.9 2.1-1.2 2.7zm3.1-1.9 3.4 1.5 0.5-1.1c0.4-1 0.1-1.9-1.1-2.3-0.4-0.2-0.7-0.2-1.1-0.2-0.3 0-0.6 0.1-0.7 0.3-0.2 0.2-0.3 0.4-0.5 0.8z"/>
	<path class="st1" d="m30.6 57.6-0.4 2.6c-1.1-0.2-1.9 0-2.4 0.8-0.2 0.4-0.3 0.7-0.2 1s0.3 0.6 0.5 0.7c0.3 0.2 0.6 0.2 1 0.1 0.3-0.1 0.9-0.5 1.7-1.1 0.7-0.6 1.4-1 1.9-1.2 0.5-0.3 1-0.4 1.7-0.4s1.2 0.2 1.9 0.5c1 0.6 1.8 1.5 2 2.6s0 2.3-0.7 3.5c-1.2 2.1-3 2.8-5.5 2.2l0.6-2.6c1.4 0.4 2.3 0.1 2.8-0.8 0.2-0.4 0.3-0.8 0.3-1.2-0.1-0.4-0.3-0.7-0.6-0.9s-0.6-0.2-0.9-0.1-0.8 0.4-1.5 0.9c-0.8 0.7-1.5 1.1-2 1.5-0.5 0.3-1 0.4-1.8 0.4-0.6 0-1.2-0.2-1.9-0.5-1-0.6-1.7-1.5-2-2.5s-0.1-2.1 0.5-3.2c1.3-2.1 2.9-2.8 5-2.3z"/>
	<path class="st1" d="m29.9 53.5 4.9-6.4 1.9 1.4-3.1 4.2 2.5 1.9 2.4-3.2 1.9 1.4-2.4 3.2 2.6 2 3.1-4.2 1.9 1.5-4.9 6.4z"/>
	<path class="st1" d="m47 46.2 2-1.9c0.9 1 1.6 2.2 1.6 3.4 0.1 1.2-0.3 2.3-1.2 3.3-1.1 1.1-2.4 1.7-3.9 1.5s-3-1-4.5-2.6c-1.6-1.5-2.5-2.9-2.8-4.4s0.1-2.8 1.4-3.9c2-2 4.2-1.9 6.9 0.3l-1.7 2.1c-1.5-1.4-2.6-1.6-3.4-0.7-0.4 0.4-0.5 1-0.3 1.7s0.9 1.7 2.3 2.9c1.1 1.1 2.1 1.8 2.8 2 0.6 0.2 1.2 0 1.7-0.4 0.5-0.8 0.3-1.8-0.9-3.3z"/>
	<path class="st1" d="m45 36.5 2.3-1.9 4.8 5.9c0.6 0.8 1.1 1.4 1.6 1.7 0.3 0.3 0.7 0.4 1 0.4 0.4 0 0.7-0.2 1-0.4 0.4-0.3 0.6-0.6 0.7-1s0-0.7-0.2-1l-1.2-1.8-4.8-6 1.9-1.6 4.7 5.8c0.9 1.1 1.6 2.1 1.9 2.8s0.4 1.5 0.1 2.3c-0.2 0.8-0.8 1.7-1.8 2.4-0.9 0.7-1.8 1.1-2.5 1.2s-1.5 0-2.1-0.4-1.6-1.2-2.6-2.6z"/>
	<path class="st1" d="m55.3 28.6 3.6-2.2c0.7-0.4 1.2-0.7 1.7-0.8 0.4-0.2 0.8-0.2 1.5-0.2 0.5 0 1 0.2 1.6 0.6 0.5 0.3 0.9 0.8 1.4 1.5 0.8 1.5 0.9 2.7 0.2 3.9l5.1 3.7-2.7 1.7-4.3-3.6-1.2 0.7 2.7 4.5-2.5 1.5zm3.7 0.4 1.9 3.2 1.1-0.6c0.9-0.6 1.1-1.5 0.5-2.5-0.2-0.4-0.5-0.6-0.7-0.8-0.3-0.2-0.5-0.2-0.8-0.2-0.2 0-0.5 0.2-0.9 0.4z"/>
	<path class="st1" d="m65.6 22.7 2.6-1.2 5.7 12-2.6 1.2z"/>
	<path class="st1" d="m69.9 20.8 7.8-2.9 0.8 2.3-2.5 0.9 3.8 10.1-2.7 1-3.8-10.1-2.5 0.9z"/>
	<path class="st1" d="m79 17.3 3.1-0.8 3 4.3 0.7-5.2 2.8-0.7-1.7 8.3 1.4 5.4-2.8 0.7-1.4-5.4z"/>
	<path class="st1" d="m104 18.8 2.2 0.2c-0.2 1.6-0.7 3-1.5 4.4 0.5 0.4 0.9 0.6 1.5 0.6h0.4l0.2 2.3c-0.3 0.1-0.7 0.2-1 0.2-0.9 0.1-1.8-0.3-2.7-1-1 0.9-2.2 1.5-3.5 1.6-1.5 0.1-2.6-0.2-3.3-0.9s-1.1-1.7-1.2-2.7c-0.1-1.7 0.8-3 2.7-4.1-0.9-1-1.4-2-1.5-2.9-0.1-0.8 0.2-1.6 0.8-2.2s1.5-1 2.5-1c1-0.1 1.9 0.2 2.6 0.7 0.6 0.5 1 1.2 1 2.2 0.1 1.4-0.6 2.5-2.1 3.3l2 2.3c0.5-0.7 0.8-1.8 0.9-3zm-5 2c-0.8 0.6-1.2 1.4-1.1 2.2 0 0.5 0.2 1 0.6 1.4 0.3 0.3 0.8 0.5 1.5 0.4 0.7 0 1.4-0.3 1.8-0.9zm1-2.7c0.7-0.5 1.1-1.1 1-1.9 0-0.3-0.1-0.5-0.3-0.7s-0.4-0.3-0.8-0.3c-0.3 0-0.6 0.1-0.7 0.3-0.2 0.2-0.2 0.4-0.2 0.7 0 0.5 0.3 1.1 1 1.9z"/>
	<path class="st1" d="m112.8 13.3 2.9 0.2-1 13.3-2.9-0.2z"/>
	<path class="st1" d="m119.1 13.8 3.2 0.5 2 8.7 1.5-8.1 2.2 0.4-2.3 13.1-2.6-0.4-2.3-10.2-1.7 9.5-2.2-0.4z"/>
	<path class="st1" d="m131.3 16.3 7.6 2.3-0.6 2.2-4.8-1.5-1 3.3 3.6 1.1-0.6 2.2-3.6-1.1-1.6 5-2.8-0.8z"/>
	<path class="st1" d="m140.9 19.4 3.8 1.7c0.7 0.3 1.2 0.6 1.7 0.8 0.4 0.2 0.7 0.6 0.9 1 0.3 0.5 0.4 1 0.4 1.7s-0.1 1.2-0.4 1.9c-0.6 1.6-1.7 2.4-3.1 2.5l-0.1 6.3-2.9-1.2 0.5-5.5-1.4-0.6-2.1 4.8-2.7-1.1zm1.9 3.1-1.5 3.4 1.1 0.5c1 0.4 1.9 0.1 2.4-1 0.2-0.4 0.2-0.7 0.2-1.1 0-0.3-0.1-0.6-0.3-0.7-0.2-0.2-0.4-0.3-0.8-0.5z"/>
	<path class="st1" d="m155.3 26.5 2.5 1.6-3.8 13.3-2.5-1.6 0.9-2.7-3.2-2-2 2-2.3-1.5zm-2.2 8.4 1.8-5.3-3.9 3.9z"/>
	<path class="st1" d="m167.5 38.8-2.5-0.8c0.4-1 0.3-1.9-0.4-2.5-0.3-0.3-0.6-0.4-1-0.3-0.3 0-0.6 0.2-0.8 0.4-0.2 0.3-0.3 0.6-0.2 0.9s0.4 0.9 0.9 1.9c0.4 0.8 0.8 1.5 0.9 2 0.2 0.5 0.2 1.1 0.1 1.8-0.1 0.6-0.4 1.1-0.8 1.8-0.8 0.9-1.8 1.5-2.9 1.6s-2.3-0.3-3.4-1.2c-1.9-1.6-2.3-3.4-1.2-5.7l2.5 1c-0.6 1.2-0.4 2.2 0.4 2.9 0.4 0.3 0.8 0.5 1.2 0.4 0.4 0 0.7-0.2 1-0.5 0.2-0.2 0.3-0.5 0.3-0.8s-0.2-0.8-0.6-1.6c-0.5-0.9-0.9-1.7-1.1-2.2s-0.2-1.1-0.2-1.8c0.1-0.6 0.3-1.2 0.8-1.8 0.7-0.9 1.7-1.5 2.7-1.6s2.1 0.2 3.1 1c1.5 1.5 2 3.2 1.2 5.1z"/>
	<path class="st1" d="m170.8 38 5.8 5.9-1.8 1.8-1.9-2-7.7 7.6-2.1-2.1 7.7-7.6-1.9-1.9z"/>
	<path class="st1" d="m178.1 45.5 2.6 3.2c0.5 0.6 0.8 1.1 1 1.6s0.3 0.8 0.3 1.4c0 0.5-0.1 1.1-0.4 1.7-0.3 0.5-0.7 1-1.2 1.5-1.2 1-2.6 1.2-3.9 0.7l-3 5.5-2-2.5 3-4.7-0.9-1.1-4.2 3.2-1.8-2.3zm0.1 3.6-2.9 2.3 0.8 1c0.7 0.9 1.6 0.9 2.6 0.1 0.3-0.3 0.6-0.5 0.7-0.8s0.1-0.6 0.1-0.8c-0.1-0.2-0.2-0.5-0.5-0.8z"/>
	<path class="st1" d="m185.3 55.1 1.5 2.5-6.5 3.8c-0.9 0.5-1.6 0.9-1.9 1.2s-0.5 0.6-0.5 1 0.1 0.7 0.3 1.1 0.5 0.7 0.9 0.8c0.3 0.1 0.7 0.1 1.1 0s1-0.5 2-1l6.5-3.8 1.2 2.1-6.4 3.8c-1.2 0.7-2.3 1.2-3 1.5-0.7 0.2-1.5 0.2-2.3-0.2-0.8-0.3-1.6-1-2.2-2.1-0.6-1-0.9-1.9-0.9-2.6s0.2-1.5 0.6-2.1 1.5-1.4 3-2.3z"/>
	<path class="st1" d="m186.5 75.6 0.9 2.6c-1.4 0.5-2.6 0.5-3.7 0.1s-2-1.2-2.5-2.5c-0.6-1.5-0.6-2.9 0.2-4.2s2.2-2.3 4.1-3.1c2-0.8 3.6-1.1 5.2-0.8 1.5 0.3 2.5 1.2 3.1 2.8 1 2.6 0.1 4.6-2.9 6.2l-1.2-2.4c1.8-0.8 2.5-1.8 2-2.9-0.2-0.5-0.7-0.8-1.5-0.9-0.7-0.1-2 0.2-3.6 0.9-1.5 0.6-2.5 1.2-2.9 1.8-0.4 0.5-0.5 1.1-0.2 1.8 0.2 0.9 1.3 1.1 3 0.6z"/>
	<path class="st1" d="m195.7 76 2.4 7.9-2.4 0.7-0.8-2.6-10.4 3.1-0.8-2.8 10.4-3.1-0.7-2.5z"/>
	<path class="st1" d="m198.6 86.1 0.5 2.9-7.5 1.4c-1 0.2-1.8 0.4-2.2 0.5-0.4 0.2-0.6 0.4-0.8 0.7s-0.2 0.7-0.1 1.1c0.1 0.5 0.3 0.8 0.5 1 0.3 0.2 0.6 0.3 1 0.3s1.1-0.1 2.2-0.3l7.5-1.4 0.4 2.4-7.4 1.4c-1.5 0.2-2.6 0.4-3.3 0.3-0.7 0-1.5-0.4-2.1-0.9-0.6-0.6-1-1.5-1.2-2.7-0.2-1.1-0.2-2.1 0.1-2.8s0.7-1.2 1.4-1.7 1.9-0.7 3.5-1z"/>
	<path class="st1" d="m200.6 98.8 0.2 4.2v1.9c-0.1 0.4-0.2 0.8-0.5 1.4-0.3 0.4-0.7 0.8-1.2 1-0.5 0.3-1.1 0.4-1.9 0.4-1.7 0.1-2.8-0.5-3.5-1.8l-5.7 2.7-0.1-3.2 5.2-2-0.1-1.5-5.3 0.2-0.1-2.9zm-2 3-3.7 0.2v1.2c0 1.1 0.7 1.7 2 1.7 0.4 0 0.8-0.1 1-0.3 0.3-0.2 0.4-0.4 0.5-0.6s0.1-0.5 0.1-1z"/>
	<path class="st1" d="m200.9 110.8-0.6 8.1-2.3-0.2 0.4-5.1-3.1-0.2-0.3 4.1-2.3-0.2 0.3-4.1-3.2-0.2-0.4 5.1-2.4-0.2 0.6-8.1z"/>
	<path class="st1" d="m49.9 168.6-2.4-1c0.5-1 0.5-1.9-0.1-2.5-0.3-0.3-0.6-0.4-0.9-0.5-0.3 0-0.6 0.1-0.8 0.3-0.3 0.2-0.4 0.6-0.3 0.9s0.3 1 0.6 2c0.4 0.8 0.6 1.6 0.7 2.1s0.1 1.1-0.1 1.8c-0.2 0.6-0.5 1.1-1 1.7-0.8 0.8-1.9 1.2-3.1 1.2-1.1-0.1-2.3-0.6-3.2-1.7-1.7-1.8-1.9-3.6-0.6-5.8l2.3 1.4c-0.7 1.1-0.7 2.2 0 2.9 0.3 0.4 0.7 0.5 1.1 0.6 0.4 0 0.7-0.1 1-0.4 0.2-0.2 0.4-0.5 0.4-0.8s-0.1-0.9-0.5-1.7c-0.4-0.9-0.7-1.8-0.8-2.3s-0.1-1.1 0-1.8c0.2-0.6 0.5-1.1 1-1.7 0.8-0.8 1.9-1.2 2.9-1.2s2.1 0.5 2.9 1.4c1.7 1.4 2.1 3.2 0.9 5.1z"/>
	<path class="st1" d="m53.4 167.8 6.2 5.1-1.5 1.7-4.1-3.2-2 2.4 3.1 2.5-1.5 1.8-3.1-2.5-2.1 2.5 4.1 3.2-1.5 1.9-6.2-5.1z"/>
	<path class="st1" d="m61.8 184.1 2.2 1.6c-0.8 1.1-1.9 2-3 2.3s-2.3 0.1-3.4-0.5c-1.4-0.8-2.1-2.1-2.2-3.5-0.1-1.5 0.4-3.1 1.6-4.9 1.1-1.9 2.4-3 3.7-3.6 1.4-0.6 2.8-0.4 4.2 0.4 2.4 1.5 2.7 3.7 1.1 6.8l-2.4-1.2c0.9-1.7 0.9-2.9 0-3.4-0.5-0.3-1.1-0.3-1.8 0s-1.5 1.2-2.4 2.8c-0.8 1.4-1.4 2.4-1.4 3.1s0.2 1.2 0.7 1.6c1 0.4 2 0 3.1-1.5z"/>
	<path class="st1" d="m70 179.1 2.7 1.1-3.1 7c-0.4 0.9-0.7 1.7-0.8 2.1s0 0.8 0.2 1.1 0.5 0.6 0.9 0.7c0.4 0.2 0.8 0.2 1.2 0.1 0.3-0.1 0.6-0.3 0.8-0.6s0.5-1 1-2l3.1-7 2.2 1-3 6.9c-0.6 1.4-1.1 2.3-1.6 2.9-0.4 0.6-1.1 1-2 1.1-0.8 0.2-1.9 0-3-0.4-1-0.5-1.8-1-2.3-1.7-0.4-0.6-0.6-1.4-0.6-2.1s0.4-2 1.1-3.5z"/>
	<path class="st1" d="m80.3 183.6 4.1 1.1c0.7 0.2 1.4 0.4 1.8 0.6s0.7 0.5 1 0.9 0.5 0.9 0.6 1.6c0.1 0.6 0 1.2-0.2 2-0.4 1.6-1.4 2.5-2.8 2.8l0.7 6.2-3-0.9-0.2-5.5-1.4-0.4-1.5 5-2.8-0.8zm2.2 2.9-1 3.5 1.2 0.3c1 0.3 1.9-0.1 2.2-1.4 0.1-0.4 0.1-0.8 0.1-1.1-0.1-0.3-0.2-0.5-0.4-0.7s-0.5-0.3-0.9-0.4z"/>
	<path class="st1" d="m90.7 186.3 2.9 0.5-2.4 13.1-2.9-0.5z"/>
	<path class="st1" d="m94.5 187.1 8.2 0.8-0.2 2.5-2.7-0.3-1.1 10.7-2.9-0.3 1.1-10.7-2.6-0.3z"/>
	<path class="st1" d="m102.9 188.1h3.2l1.9 4.8 2-4.9h2.8l-3.6 7.7v5.6h-2.9v-5.6z"/>
	<path class="st1" d="m119.4 187 2.9-0.5 5.9 12.5-2.9 0.5-1.1-2.6-3.6 0.6-0.2 2.8-2.6 0.4zm3.8 7.8-2.3-5.1-0.3 5.6z"/>
	<path class="st1" d="m133 190.3 4.4-1.4 2.1 6.8-1.1 0.4-0.8-1.4c-0.3 1.4-1.1 2.2-2.6 2.6s-2.8 0.2-3.9-0.6c-1.2-0.8-2.1-2.3-2.7-4.2-0.6-2.1-0.7-3.8-0.3-5.3s1.5-2.5 3.1-3c2.6-0.8 4.5 0.2 5.7 3l-2.4 1.1c-0.7-1.6-1.6-2.3-2.6-2-0.6 0.2-1 0.6-1.2 1.4s0 2 0.5 3.6c0.4 1.6 0.9 2.5 1.6 3 0.5 0.5 1.1 0.6 1.9 0.4 1.1-0.3 1.5-1.4 0.9-3l-1.9 0.6z"/>
	<path class="st1" d="m137.6 182.2 7.4-3.3 0.9 2.1-4.7 2.2 1.2 2.8 3.6-1.7 0.9 2.1-3.6 1.7 1.4 3 4.7-2.2 0.9 2.2-7.4 3.3z"/>
	<path class="st1" d="m145.9 178.2 2.8-1.7 7.3 5.2-4.4-7 1.9-1.1 7 11.3-2.2 1.4-8.5-6 5.1 8.2-1.9 1.1z"/>
	<path class="st1" d="m165.6 174.7 2.2-1.6c0.8 1.1 1.2 2.4 1.1 3.6s-0.6 2.3-1.7 3.1c-1.2 1-2.6 1.4-4.1 0.9-1.5-0.4-2.8-1.5-4.2-3-1.4-1.7-2.1-3.2-2.2-4.7s0.5-2.7 1.8-3.8c2.2-1.8 4.4-1.4 6.8 1.1l-2 1.9c-1.4-1.5-2.4-1.9-3.3-1.1-0.5 0.4-0.6 0.9-0.5 1.7 0.1 0.7 0.7 1.8 2 3.2 1 1.2 1.9 2 2.5 2.3s1.2 0.2 1.8-0.2c0.8-0.8 0.7-2-0.2-3.4z"/>
	<path class="st1" d="m162.2 166.6 2.2-2.3 4.8 2-2.1-4.8 2-2.1 3 8 4.1 3.8-2 2.1-4.1-3.8z"/>
	<path class="st2" d="m107 30.4c-42.3 0-76.6 34.3-76.6 76.6 0 19.9 7.6 38 20 51.7l0.2-2.6c-11.8-13.7-18.4-30.9-18.4-49.2 0-19.9 7.8-38.7 21.9-52.9 14.1-14 32.9-21.8 52.9-21.8 19.9 0 38.7 7.8 52.9 21.9s21.9 32.9 21.9 52.9-7.8 38.7-21.9 52.9c-14.1 14.1-32.9 21.9-52.9 21.9-18.2 0-35.3-6.4-48.9-18.3l-1.4 1.4c13.5 11.7 31.1 18.8 50.3 18.8 42.3 0 76.6-34.3 76.6-76.5 0.1-42.5-34.2-76.8-76.6-76.8z"/>
	<path class="st3" d="m22.8 126.9-1.9 0.6c2.7 11.2 7.5 21.7 14 30.8l1.7-1c-6.5-9.1-11.2-19.4-13.8-30.4zm168.6 0c-2.6 11.1-7.4 21.3-13.8 30.3l1.7 1c6.5-9.1 11.3-19.5 14-30.8z"/>
	<path class="st3" d="m18.4 128.3-1.9 0.6c2.8 11.6 7.8 22.4 14.5 32l1.7-1c-6.7-9.5-11.6-20.2-14.3-31.6zm177.3 0c-2.7 11.5-7.7 22.1-14.3 31.5l1.7 1c6.8-9.5 11.7-20.4 14.5-32z"/>
	<path class="st3" d="m27 125.6-1.9 0.6c2.6 10.9 7.2 20.9 13.5 29.7l1.7-1c-6.3-8.8-10.8-18.6-13.3-29.3zm160.2 0c-2.5 10.7-7.1 20.6-13.2 29.2l1.7 1c6.3-8.8 10.9-18.8 13.5-29.7z"/>
	<path class="st3" d="m116.4 135.2 6.9 3.3v5.4c-7.8 0.2-15.8 2.1-21.3 4.2-2.5-2.9-4.8-5.9-6.8-9.1h4.6l0.8-14.6h4.3l0.8 14.6h3.2v-3.6l7.4 3.5zm-4.8 15.2c-0.8 0-1.6 0.9-1.6 2v3.4c1 0.8 2.1 1.7 3.1 2.5v-5.9c0.1-1.1-0.7-2-1.5-2zm6.8-2c-0.8 0-1.6 0.9-1.6 2v10.5c1 0.6 2.1 1.4 3.1 2v-12.5c0-1.1-0.6-2-1.5-2zm5.7 16.6c0.8 0.4 1.7 0.8 2.5 1.1 0.2-0.1 0.3-0.1 0.5-0.2v-38.3s0-0.1 0.1-0.1h0.7s0.1 0 0.1 0.1v37.9c0.9-0.4 1.9-0.9 2.8-1.4v-38.4s0-0.1 0.1-0.1h0.7s0.1 0 0.1 0.1v38c0.9-0.5 1.9-1 2.8-1.6v-34.5s0-0.1 0.1-0.1h0.7s0.1 0 0.1 0.1v34.1c1.1-0.7 2.2-1.5 3.2-2.2v-38h-14.3v43.5zm24.2-35.4h-2.1v-2.9c0-0.2-0.1-0.3-0.1-0.5-0.2-0.2-0.4-0.4-0.7-0.4s-0.6 0.2-0.7 0.4c-0.1 0.1-0.1 0.3-0.1 0.5v2.9h-2.1v3.6h-3.2v25.8c4.7-3.4 8.9-7.3 12.6-11.6v-14.1h-3.4v-3.6zm4.1 16.8c2-2.4 3.7-4.9 5.4-7.6v-2.5h-5.4zm-7.6-49.8h-3.2l1.7-5.4zm0 0h-3.2l1.7-5.4zm23.3-10.3v15.9c0 1.7 0 3.2-0.2 4.9h-73.1c2.6-3.3 4.1-7.5 4.1-11.7 0-3.8-1.1-7.5-3.1-10.5 9-1.2 21-2.7 30.8-2.8h1.5c18.3-0.2 34.1 2.9 40 4.2zm-61.6 8.6c0-3.3 0.9-5 2.8-5 1.7 0 2.5 1 2.5 3.2l3.7-0.2c-0.4-3.9-2.4-5.9-6.2-5.9-2.1 0-3.8 0.7-5 2.2s-1.9 3.3-1.9 5.7c0 2.5 0.6 4.4 1.9 5.8 1.2 1.4 2.9 2.1 5 2.1 1.7 0 3-0.5 4.2-1.5s1.8-2.4 2.1-4.2l-3.5-0.1c-0.3 2-1.2 2.9-2.7 2.9-0.9 0-1.7-0.3-2.2-1-0.4-0.8-0.7-2-0.7-4zm14.9-7.7h-3.5v15.3h3.5zm14.3 10.4c0-0.8-0.2-1.7-0.7-2.4s-1.1-1.2-1.9-1.6c-0.7-0.3-1.9-0.6-3.4-0.9-0.9-0.2-1.6-0.4-1.8-0.6-0.3-0.2-0.4-0.5-0.4-0.9 0-0.9 0.7-1.4 2.1-1.4s2.2 0.6 2.6 1.8l3-1c-0.8-2.4-2.8-3.6-5.8-3.6-1.7 0-3 0.4-4.1 1.4-1 0.9-1.5 2.1-1.5 3.4s0.4 2.4 1.2 3c0.8 0.7 2.2 1.2 4.2 1.7 1 0.2 1.8 0.4 2.1 0.7 0.4 0.2 0.5 0.6 0.5 1s-0.2 0.8-0.6 1.1-1 0.5-1.9 0.5c-1.7 0-2.7-0.7-3.1-2.2l-3.3 0.7c0.3 1.4 1 2.5 2.2 3.2 1.1 0.7 2.4 1 4.1 1 2.1 0 3.6-0.5 4.8-1.6 1.2-0.7 1.7-1.9 1.7-3.3zm14.7 4.9-4.8-15.3h-4.2l-4.9 15.3h3.1l0.9-3.1h5l0.9 3.1zm-7.2-11.3 1.6 5.4h-3.2zm1.6 5.4h-3.2l1.7-5.4zm0 0h-3.2l1.7-5.4z"/>
	<path class="st4" d="m105.9 126.3-0.1-1.2c0.9 2 2.5 3.4 4.5 4.4l-0.1 0.5c-1.8-0.8-3.4-2.1-4.3-3.7zm17.4-5.5c-0.2-5.1-4.4-9-9.5-9s-9.6 4.3-9.6 9.6c0 0.7 0.1 1.5 0.3 2.2h0.5c-0.2-0.7-0.3-1.5-0.3-2.2 0-5 4.1-8.9 8.9-8.9 5 0 8.9 4.1 8.9 8.9 0 3.6-2.2 6.8-5.3 8.2 0 0.2 0.1 0.3 0.2 0.5 2.9-1.2 5.1-3.9 5.6-7.3l0.3-2zm-1.8 0.4c0-4.3-3.4-7.7-7.7-7.7s-7.7 3.4-7.7 7.7c0 3 1.8 5.7 4.5 7 0-0.2 0.1-0.4 0.2-0.5-2.4-1.1-4.1-3.5-4.1-6.3 0-3.9 3.2-7.1 7.1-7.1s7.1 3.2 7.1 7.1c0 2.8-1.7 5.2-3.9 6.3 0 0.2 0.1 0.4 0.2 0.5 2.5-1.3 4.3-4 4.3-7zm-1.5 0c0-3.4-2.8-6.1-6.1-6.1-3.4 0-6.1 2.8-6.1 6.1 0 2.4 1.4 4.5 3.3 5.5 0.1-0.2 0.1-0.4 0.2-0.6-1.8-0.9-2.9-2.8-2.9-4.9 0-3 2.5-5.5 5.5-5.5s5.5 2.5 5.5 5.5c0 2.1-1.1 3.9-2.9 4.9 0.1 0.2 0.1 0.4 0.2 0.6 2-1 3.3-3.1 3.3-5.5zm-1.2 0c0-2.7-2.2-4.9-5-4.9-2.7 0-5 2.2-5 4.9 0 1.9 1 3.4 2.5 4.3 0.1-0.2 0.1-0.4 0.2-0.6-1.2-0.7-2.1-2.1-2.1-3.6 0-2.4 2-4.4 4.4-4.4s4.4 2 4.4 4.4c0 1.6-0.8 2.9-2 3.6 0.1 0.2 0.1 0.4 0.2 0.6 1.4-0.9 2.4-2.4 2.4-4.3zm-2 0c0-1.7-1.4-3.1-3-3.1-1.7 0-3 1.4-3 3.1 0 0.9 0.4 1.8 1 2.4 0.1-0.2 0.1-0.4 0.2-0.7-0.4-0.4-0.6-1-0.6-1.7 0-1.4 1-2.4 2.4-2.4 1.2 0 2.4 1 2.4 2.4 0 0.6-0.2 1.1-0.6 1.7 0.1 0.2 0.1 0.4 0.2 0.7 0.7-0.6 1-1.5 1-2.4zm1 0c0-2.2-1.8-3.9-3.9-3.9s-3.9 1.8-3.9 3.9c0 1.4 0.7 2.6 1.8 3.3 0.1-0.2 0.1-0.4 0.2-0.6-0.8-0.6-1.4-1.6-1.4-2.7 0-1.9 1.5-3.3 3.3-3.3s3.3 1.5 3.3 3.3c0 1-0.5 2.1-1.4 2.6 0.1 0.2 0.1 0.4 0.2 0.6 1.1-0.6 1.8-1.9 1.8-3.2zm30.2-11.4h-0.4c1.2 3.6 1.9 7.4 1.9 11.4 0 2.6-0.3 5.2-0.8 7.7h0.3v0.3c0.6-2.6 0.9-5.3 0.9-8-0.1-4-0.7-7.8-1.9-11.4zm9.3 0h-0.4c0.9 3.6 1.5 7.5 1.5 11.4 0 5-0.8 9.9-2.4 14.4h0.4c1.6-4.5 2.4-9.3 2.4-14.4 0.1-4-0.5-7.8-1.5-11.4zm-16.9 0h-0.5c1.6 3.5 2.4 7.4 2.4 11.4s-0.8 7.8-2.4 11.3h0.5c0.4-1 0.8-2.2 1.1-3.3v-0.3h0.1c0.7-2.5 1-5 1-7.7 0.1-4.1-0.8-7.9-2.2-11.4zm-48.4 17-0.4 0.4c1.1 4.3 3.4 8 6.5 10.9h0.6c-3.2-3-5.6-6.8-6.7-11.3zm41.4-17c1.9 3.2 3 7 3.1 10.9h0.4c-0.1-3.9-1.1-7.7-3-10.9zm-39 0h-0.5c-0.4 0.6-0.7 1.4-1 2.1v1.1c0.3-1 0.8-2.2 1.5-3.2zm22.7 0h-6.5c-5 1.5-8.6 6-8.6 11.4 0 0.7 0.1 1.5 0.2 2.2h0.5c-0.1-0.7-0.2-1.5-0.2-2.2 0-6.2 5.1-11.3 11.3-11.3s11.1 4.9 11.3 10.9h0.5c-0.1-5.3-3.6-9.7-8.5-11zm-7.7 22.4 0.1-0.5c-1.4-0.5-2.5-1.4-3.5-2.3v0.7c1 0.9 2.2 1.6 3.4 2.1zm8.8-0.5c0 0.2 0.1 0.3 0.1 0.5 2-0.8 3.6-2.1 5-3.7v-0.8c-1.2 1.7-3 3.2-5.1 4zm0.9 2.9c0 0.2 0.1 0.3 0.1 0.5 1.6-0.6 2.9-1.4 4.2-2.4v-0.7c-1.4 1-2.8 2-4.3 2.6zm-12.8-0.7c0.6 0.4 1.4 0.7 2.1 1v-0.5c-0.7-0.3-1.5-0.6-2.1-1.1zm-7.3-12.7c0 1.7 0.3 3.3 0.8 4.9l0.1-1.5c-0.3-1-0.4-2.2-0.4-3.4 0-4.7 2.3-8.8 5.7-11.4h-0.8c-3.3 2.7-5.4 6.8-5.4 11.4zm29.2-0.4h0.5c-0.1-4.4-2.2-8.3-5.4-10.9h-0.8c3.3 2.5 5.5 6.4 5.7 10.9zm-0.4-11c2.5 3 3.9 6.9 4.1 10.9h0.5c-0.1-4.2-1.6-7.9-3.9-10.9zm-32 11.4c0-4.4 1.6-8.3 4.1-11.4h-0.6c-2.5 3.1-3.9 7.1-3.9 11.4s1.6 8.4 4.1 11.6v-0.7c-2.2-3-3.7-6.9-3.7-10.9zm10.7 16.9h1.1c-0.4-0.1-0.7-0.3-1.1-0.4zm15.7-0.9 0.5 0.2 0.6-0.3v-0.5c-0.4 0.2-0.8 0.4-1.1 0.6z"/>
</svg>
